<svg width="24" height="24" viewBox="0 0 24 24" fill="none" xmlns="http://www.w3.org/2000/svg">
<path d="M18.0041 9.46485L15.0684 14.1228C14.6257 14.8239 13.6985 15.0334 12.9974 14.5907C12.9639 14.5695 12.9312 14.547 12.8994 14.5232L10.5634 12.7707C10.349 12.6104 10.0544 12.6112 9.841 12.7727L6.68399 15.1692C6.47522 15.3277 6.17747 15.287 6.01894 15.0782C5.8991 14.9204 5.88991 14.7048 5.99588 14.5374L8.9335 9.87736C9.3763 9.17624 10.3036 8.96683 11.0048 9.40963C11.0382 9.43078 11.0709 9.45324 11.1026 9.47697L13.4386 11.2295C13.653 11.3899 13.9476 11.3891 14.161 11.2275L17.316 8.83312C17.5248 8.67461 17.8225 8.71535 17.981 8.92411C18.1008 9.08188 18.11 9.29745 18.0041 9.46485Z" fill="#A2A1FF"/>
<path d="M12.5907 2.00001C12.3938 1.99403 12.1969 1.99403 12 2.00001C6.67341 1.80708 2.19898 5.96882 2.00605 11.2954C2.00117 11.4303 1.99909 11.5653 1.99989 11.7003C1.96498 14.4327 3.10963 17.0475 5.14076 18.8754C5.30421 19.0208 5.4015 19.2263 5.41041 19.4449L5.46473 21.2236C5.47889 21.666 5.84901 22.0131 6.29139 21.9989C6.39344 21.9956 6.49397 21.9729 6.58747 21.9318L8.57148 21.0566C8.73927 20.9823 8.92762 20.968 9.10468 21.0163C10.0481 21.274 11.022 21.4033 12 21.4007C17.3574 21.5637 21.8325 17.353 21.9957 11.9957C22.1588 6.63832 17.948 2.1631 12.5907 2.00001ZM18.0041 9.46485L15.0684 14.1229C14.6257 14.8239 13.6986 15.0334 12.9975 14.5907C12.9639 14.5695 12.9312 14.547 12.8994 14.5233L10.5634 12.7708C10.349 12.6104 10.0545 12.6112 9.84102 12.7727L6.68404 15.1692C6.47524 15.3277 6.17751 15.287 6.01894 15.0782C5.89913 14.9204 5.88991 14.7048 5.99593 14.5374L8.93355 9.87739C9.3763 9.17622 10.3037 8.96681 11.0048 9.40962C11.0383 9.4308 11.0709 9.45326 11.1026 9.477L13.4387 11.2295C13.653 11.3899 13.9476 11.389 14.161 11.2275L17.316 8.83314C17.5248 8.67463 17.8225 8.71534 17.981 8.92408C18.1008 9.08186 18.11 9.29743 18.0041 9.46485Z" fill="#6563FF"/>
</svg>
