<svg width="24" height="24" viewBox="0 0 24 24" fill="none" xmlns="http://www.w3.org/2000/svg">
<path d="M21.7976 16.9872C18.9314 16.5149 17.6466 13.5857 17.5936 13.4613L17.5881 13.4496C17.5067 13.3164 17.4553 13.1671 17.4377 13.0121C17.42 12.857 17.4365 12.7 17.4859 12.552C17.6784 12.0984 18.3152 11.8963 18.7372 11.7623C18.8426 11.7289 18.9422 11.6973 19.0204 11.6663C19.7831 11.365 19.9382 11.0532 19.9344 10.8444C19.9144 10.7142 19.856 10.593 19.7667 10.4961C19.6774 10.3993 19.5613 10.3313 19.4331 10.3008L19.4274 10.2987C19.3142 10.2532 19.1932 10.23 19.0711 10.2305C18.9636 10.2286 18.8569 10.2498 18.7582 10.2925C18.4604 10.4431 18.1358 10.5336 17.803 10.5587C17.6112 10.5632 17.4238 10.5005 17.2734 10.3814C17.2826 10.2115 17.2934 10.0362 17.3052 9.85095L17.3092 9.78565C17.5015 8.43832 17.4196 7.06603 17.0683 5.75116C16.6542 4.8071 15.9712 4.00592 15.1045 3.44761C14.2379 2.8893 13.226 2.59859 12.1952 2.61176C12.0611 2.61316 11.927 2.61442 11.7928 2.61554C10.7635 2.60282 9.7532 2.8936 8.88812 3.45156C8.02304 4.00953 7.34148 4.80996 6.92854 5.75292C6.5773 7.06662 6.49523 8.43777 6.68727 9.78399C6.70021 9.98313 6.71221 10.1824 6.72327 10.3817C6.55755 10.5116 6.34947 10.5751 6.13947 10.5601C5.78612 10.545 5.44022 10.4536 5.12547 10.2923C5.04828 10.2582 4.96454 10.2415 4.88017 10.2434C4.70638 10.2366 4.53481 10.2842 4.38945 10.3797C4.2441 10.4752 4.13225 10.6138 4.06956 10.776C3.98765 11.2067 4.60246 11.5186 4.97624 11.6662C5.05524 11.6976 5.15446 11.729 5.25932 11.7622C5.68101 11.8961 6.3184 12.0983 6.51084 12.5521C6.56021 12.7002 6.57664 12.8572 6.55898 13.0123C6.54132 13.1674 6.49 13.3167 6.40861 13.4499L6.40324 13.4615C6.12692 14.0631 5.76698 14.6227 5.33409 15.1236C4.54755 16.1019 3.43448 16.7637 2.19926 16.9875C2.14089 16.9971 2.08813 17.0279 2.05113 17.0741C2.01413 17.1203 1.9955 17.1785 1.99882 17.2375C2.00145 17.2822 2.01194 17.3261 2.02982 17.3672C2.2056 17.7783 3.08804 18.1178 4.58164 18.3482C4.72128 18.3698 4.78037 18.5974 4.86191 18.9704C4.8945 19.1197 4.92825 19.2746 4.97531 19.4346C4.99068 19.5055 5.03185 19.5682 5.09084 19.6105C5.14983 19.6528 5.22243 19.6716 5.29453 19.6634C5.43766 19.6553 5.57983 19.635 5.71945 19.6024C6.08761 19.5221 6.46301 19.4796 6.83981 19.4757C7.11049 19.4763 7.38066 19.4992 7.64761 19.544C8.21164 19.6869 8.73627 19.9549 9.18261 20.3281C9.93593 20.9715 10.8826 21.3446 11.8723 21.3882C11.9061 21.3882 11.9398 21.387 11.9724 21.3842C12.0135 21.3862 12.0676 21.3882 12.1243 21.3882C13.1145 21.3443 14.0617 20.971 14.8155 20.3274C15.2614 19.9545 15.7856 19.6868 16.3491 19.5441C16.6161 19.4994 16.8863 19.4765 17.1571 19.4758C17.5336 19.4776 17.9089 19.5173 18.2774 19.5945C18.4172 19.6251 18.5594 19.6431 18.7024 19.6482H18.7258C18.7935 19.6537 18.8609 19.6342 18.9153 19.5935C18.9697 19.5528 19.0074 19.4937 19.0213 19.4272C19.0677 19.2694 19.1017 19.1192 19.1352 18.9659C19.216 18.5949 19.2751 18.3683 19.4153 18.3466C20.9093 18.1159 21.7917 17.7769 21.9663 17.3681C21.9844 17.3267 21.9952 17.2824 21.998 17.2372C22.0013 17.1782 21.9826 17.12 21.9456 17.0738C21.9086 17.0277 21.8559 16.9968 21.7976 16.9872V16.9872Z" fill="#6563FF"/>
</svg>
